# xmcd
#
# Track frame offsets: 
#        150
#        12137
#        24812
#        42931
#        62579
#        80844
#        94035
#        104420
#        117954
#        137327
#        148501
#        167040
#        181243
#        201123
#        213455
#        225714
#        236186
#        248492
#        260995
#        275158
#
# Disc length: 3947 seconds
#
# Revision: 0
# Processed by: cddbd v1.5.1PL0 Copyright (c) Steve Scherf et al.
# Submitted via: ExactAudioCopy v0.95a5
#
DISCID=190f6914
DTITLE=T-Bone Walker - Very Rare
DYEAR=2005
DGENRE=Blues
TTITLE0=Striking On You, Baby
TTITLE1=Please Send Me Someone to Love
TTITLE2=Brother Bill ( The Last Clean Shirt)
TTITLE3=Evening
TTITLE4=The Come Back
TTITLE5=Your Picture Done Faded
TTITLE6=Don't Give Me the Run Around
TTITLE7=Hard Times
TTITLE8=Everyday I Have the Blues
TTITLE9=Person to Person
TTITLE10=Fever
TTITLE11=Three Corn Patches
TTITLE12=I'm Still In Love With You
TTITLE13=Just a Little Bit
TTITLE14=James Junior
TTITLE15=Been Down So Long (Down So Long)
TTITLE16=If You Don't Come Back
TTITLE17=Kansas City
TTITLE18=Well, I Done Got Over It
TTITLE19=Stormy Monday ( Call It Stormy Monday)
EXTD=
EXTT0=
EXTT1=
EXTT2=
EXTT3=
EXTT4=
EXTT5=
EXTT6=
EXTT7=
EXTT8=
EXTT9=
EXTT10=
EXTT11=
EXTT12=
EXTT13=
EXTT14=
EXTT15=
EXTT16=
EXTT17=
EXTT18=
EXTT19=
PLAYORDER=
